<svg width="1920" height="1080" viewBox="0 0 1920 1080" fill="none" xmlns="http://www.w3.org/2000/svg">
<g clip-path="url(#clip0_37_29)">
<rect width="1920" height="1080" fill="#585DC9"/>
<g filter="url(#filter0_d_37_29)">
<path d="M275 178C275 155.909 292.909 138 315 138H1920V1080H275V178Z" fill="white"/>
<g filter="url(#filter1_d_37_29)">
<rect x="1123" y="613" width="730" height="414" rx="40" fill="#F0F0FA"/>
</g>
<g filter="url(#filter2_d_37_29)">
<rect x="343" y="614" width="730" height="413" rx="40" fill="#F0F0FA"/>
</g>
<g filter="url(#filter3_d_37_29)">
<rect x="993" y="188" width="860" height="375" rx="40" fill="#F0F0FA"/>
</g>
<g filter="url(#filter4_d_37_29)">
<rect x="343" y="188" width="600" height="375" rx="40" fill="#32509A"/>
</g>
</g>
<g filter="url(#filter5_d_37_29)">
<rect x="44" y="584" width="188" height="315" rx="40" fill="#1F3858"/>
</g>
<g filter="url(#filter6_d_37_29)">
<rect x="44" y="922" width="191" height="114" rx="40" fill="#1F3858"/>
</g>
<g filter="url(#filter7_d_37_29)">
<rect x="1064" y="43" width="818" height="72" rx="36" fill="#1F3858"/>
</g>
<rect width="52.7692" height="49" transform="translate(1101 55)" fill="#1F3858"/>
<path d="M1139 55H1111C1105.49 55 1101 59.486 1101 65V93C1101 98.514 1105.49 103 1111 103H1139C1144.51 103 1149 98.514 1149 93V65C1149 59.486 1144.51 55 1139 55ZM1145 93C1145 96.308 1142.31 99 1139 99H1111C1107.69 99 1105 96.308 1105 93V65C1105 61.692 1107.69 59 1111 59H1139C1142.31 59 1145 61.692 1145 65V93ZM1139 67V73C1139 75.206 1137.21 77 1135 77H1129C1127.89 77 1127 76.104 1127 75C1127 73.896 1127.89 73 1129 73H1132.97C1131.1 70.53 1128.17 69 1125 69C1120.77 69 1116.98 71.678 1115.57 75.666C1115.28 76.488 1114.51 77 1113.68 77C1113.46 77 1113.24 76.962 1113.02 76.884C1111.98 76.516 1111.43 75.374 1111.8 74.332C1113.77 68.748 1119.08 64.998 1125 64.998C1128.83 64.998 1132.41 66.6 1135 69.252V66.998C1135 65.894 1135.9 64.998 1137 64.998C1138.11 64.998 1139 65.894 1139 66.998L1139 67ZM1138.2 83.666C1136.23 89.25 1130.92 93 1125 93C1121.17 93 1117.6 91.398 1115 88.746V91C1115 92.104 1114.11 93 1113 93C1111.89 93 1111 92.104 1111 91V85C1111 82.794 1112.79 81 1115 81H1121C1122.11 81 1123 81.896 1123 83C1123 84.104 1122.11 85 1121 85H1117.03C1118.9 87.47 1121.83 89 1125 89C1129.23 89 1133.02 86.322 1134.43 82.334C1134.8 81.292 1135.94 80.746 1136.98 81.114C1138.02 81.482 1138.57 82.624 1138.2 83.666Z" fill="white"/>
<path d="M89.7969 68.5391V71.0781C85.4219 75.9479 81.3984 79.9583 77.7266 83.1094C74.0807 86.2865 70.513 88.7214 67.0234 90.4141C63.5339 92.1328 60.1615 92.9922 56.9062 92.9922C54.0938 92.9922 51.6719 92.4323 49.6406 91.3125C47.6354 90.1927 46.112 88.5521 45.0703 86.3906C44.0547 84.2552 43.5469 81.7161 43.5469 78.7734C43.5469 76.4557 43.9115 74.0078 44.6406 71.4297C45.3958 68.8255 46.4766 66.2083 47.8828 63.5781C49.2891 60.9219 51.0078 58.1875 53.0391 55.375C55.0964 52.5625 57.5052 49.6068 60.2656 46.5078C63.1302 43.3047 65.9557 40.5443 68.7422 38.2266C71.5286 35.8828 74.0547 34.0469 76.3203 32.7188C78.5859 31.3906 80.6823 30.401 82.6094 29.75C84.5625 29.099 86.1771 28.7734 87.4531 28.7734C88.7552 28.7734 89.862 29.0859 90.7734 29.7109C91.6849 30.3359 92.388 31.2474 92.8828 32.4453C93.3776 33.6432 93.625 35.0234 93.625 36.5859C93.625 39.5286 92.6224 42.8099 90.6172 46.4297C88.612 50.0234 86.112 53.5 83.1172 56.8594C80.1224 60.2188 77.2578 62.9661 74.5234 65.1016C71.8151 67.2109 69.862 68.2656 68.6641 68.2656C67.8568 68.2656 67.1016 67.9531 66.3984 67.3281C65.7214 66.6771 65.3828 65.9479 65.3828 65.1406C65.3828 63.6562 66.1641 61.8594 67.7266 59.75C69.3151 57.6406 71.0339 55.7135 72.8828 53.9688C74.7578 52.1979 75.8776 51.3125 76.2422 51.3125C76.4245 51.3125 76.5156 51.3906 76.5156 51.5469C76.5156 51.7812 76.3724 52.1849 76.0859 52.7578C75.8255 53.3307 75.6953 53.6823 75.6953 53.8125C75.6953 54.0208 75.7734 54.125 75.9297 54.125C76.3724 54.125 77.6484 52.9401 79.7578 50.5703C81.8672 48.2005 83.7943 45.5964 85.5391 42.7578C87.3099 39.8932 88.1953 37.5495 88.1953 35.7266C88.1953 34.9714 88.026 34.3984 87.6875 34.0078C87.375 33.5911 86.8932 33.3828 86.2422 33.3828C84.4193 33.3828 81.6458 34.8672 77.9219 37.8359C74.224 40.7786 70.4219 44.5417 66.5156 49.125C62.6354 53.6823 59.3932 58.3958 56.7891 63.2656C54.1849 68.1354 52.8828 72.4193 52.8828 76.1172C52.8828 78.2526 53.1953 80.0365 53.8203 81.4688C54.4714 82.901 55.4089 84.0078 56.6328 84.7891C57.8828 85.5703 59.3802 85.9609 61.125 85.9609C64.901 85.9609 69.1849 84.4896 73.9766 81.5469C78.7682 78.6042 84.0417 74.2682 89.7969 68.5391ZM114.602 68.6172V71.2344C112.883 72.7969 111.503 73.8385 110.461 74.3594C109.419 74.8802 107.922 75.0885 105.969 74.9844C102.583 78.9948 99.6016 81 97.0234 81C95.5651 81 94.237 80.5182 93.0391 79.5547C91.8411 78.5911 90.8776 77.276 90.1484 75.6094C89.4453 73.9427 89.0938 72.0807 89.0938 70.0234C89.0938 68.3568 89.6406 66.5078 90.7344 64.4766C91.8542 62.4453 93.2865 60.5573 95.0312 58.8125C96.8021 57.0417 98.6901 55.6224 100.695 54.5547C102.701 53.4609 104.562 52.9141 106.281 52.9141C107.505 52.9141 108.469 53.1094 109.172 53.5C109.875 53.8646 110.227 54.3854 110.227 55.0625C110.227 55.5833 109.927 56.1823 109.328 56.8594C110.318 57.0677 110.995 57.4193 111.359 57.9141C111.724 58.3828 111.906 59.2552 111.906 60.5312C111.906 61.7812 111.607 63.3568 111.008 65.2578C110.435 67.1589 109.641 68.9427 108.625 70.6094L109.328 71.3125H109.914C110.357 71.3125 110.786 71.2083 111.203 71C111.646 70.7656 112.036 70.5312 112.375 70.2969C112.714 70.0365 113.456 69.4766 114.602 68.6172ZM106.555 58.3438C104.393 59.6458 102.544 60.8307 101.008 61.8984C99.4714 62.9401 98.1693 64.0078 97.1016 65.1016C96.0339 66.1693 95.3177 67.25 94.9531 68.3438C94.3021 71.2604 93.9766 72.8359 93.9766 73.0703C93.9766 74.7891 95.1745 75.6484 97.5703 75.6484C98.6901 75.6484 100.565 74.6849 103.195 72.7578C102.753 71.5339 102.531 70.362 102.531 69.2422C102.531 67.6016 102.87 65.9349 103.547 64.2422C104.224 62.5234 105.227 60.5573 106.555 58.3438ZM140.891 61.625C136.307 66.7292 134.016 70.2839 134.016 72.2891C134.016 73.4089 134.471 73.9688 135.383 73.9688C136.138 73.9688 137.115 73.5781 138.312 72.7969C139.536 71.9896 141.438 70.5703 144.016 68.5391V71.2344C140.318 74.8802 137.479 77.5104 135.5 79.125C133.521 80.7396 131.906 81.5469 130.656 81.5469C128.521 81.5469 127.453 80.1406 127.453 77.3281C127.453 76.4948 127.583 75.6745 127.844 74.8672C128.104 74.0599 128.456 73.2266 128.898 72.3672C129.367 71.4818 130.07 70.2318 131.008 68.6172C131.945 66.9766 133.026 65.1276 134.25 63.0703C132.766 63.8255 130.904 65.3229 128.664 67.5625C127.206 68.9688 125.969 70.3099 124.953 71.5859C123.938 72.8359 122.844 74.2422 121.672 75.8047C120.526 77.3411 119.68 78.3828 119.133 78.9297C118.612 79.4505 118.078 79.7109 117.531 79.7109C116.698 79.7109 115.93 78.8385 115.227 77.0938C114.523 75.349 114.172 73.3177 114.172 71C114.172 69.5677 114.328 68.4479 114.641 67.6406C114.979 66.8333 115.63 65.6875 116.594 64.2031C118.391 61.4427 119.94 59.4245 121.242 58.1484C122.544 56.8464 123.794 56.1953 124.992 56.1953C125.826 56.1953 126.49 56.3385 126.984 56.625C127.505 56.9115 127.766 57.3542 127.766 57.9531C127.766 58.2135 127.688 58.487 127.531 58.7734C127.375 59.0599 127.193 59.3203 126.984 59.5547C126.802 59.7891 126.398 60.2448 125.773 60.9219C121.659 65.4792 119.602 68.4349 119.602 69.7891C119.602 70.5443 119.849 70.9219 120.344 70.9219C120.656 70.9219 121.255 70.4271 122.141 69.4375C123.052 68.4219 124.211 67.1068 125.617 65.4922C127.049 63.8516 128.729 62.1458 130.656 60.375C132.609 58.6042 134.823 56.8984 137.297 55.2578C138.677 54.2943 139.823 53.8125 140.734 53.8125C141.151 53.8125 141.555 54.3854 141.945 55.5312C142.362 56.6771 142.57 57.8359 142.57 59.0078C142.57 59.5807 142.01 60.4531 140.891 61.625ZM157.492 48.4219H159.172C160.552 45.9479 161.802 44.2031 162.922 43.1875C164.042 42.1458 165.318 41.625 166.75 41.625C168.182 41.625 168.898 41.9505 168.898 42.6016C168.898 42.9141 168.339 43.7604 167.219 45.1406C166.099 46.5208 165.253 47.6797 164.68 48.6172C165.565 48.7214 166.346 48.8125 167.023 48.8906C167.727 48.9688 168.273 49.0339 168.664 49.0859C167.18 51.8464 165.318 54.6719 163.078 57.5625C162.349 57.5104 161.737 57.4714 161.242 57.4453C160.747 57.3932 160.24 57.3542 159.719 57.3281C159.224 57.276 158.612 57.224 157.883 57.1719C156.477 59.4375 155.292 61.4688 154.328 63.2656C153.391 65.0365 152.661 66.6641 152.141 68.1484C151.646 69.6328 151.398 71.0391 151.398 72.3672C151.398 74.1641 152.115 75.0625 153.547 75.0625C154.536 75.0625 155.826 74.5417 157.414 73.5C159.029 72.4323 161.177 70.8047 163.859 68.6172V71.2344C156.828 78.8646 151.633 82.6797 148.273 82.6797C147.102 82.6797 146.151 82.224 145.422 81.3125C144.719 80.401 144.367 79.2292 144.367 77.7969C144.367 76.8333 144.562 75.6875 144.953 74.3594C145.37 73.0312 146.099 71.026 147.141 68.3438C146.776 68.6562 146.424 68.9688 146.086 69.2812C145.773 69.5677 145.474 69.8411 145.188 70.1016C144.927 70.3359 144.641 70.5964 144.328 70.8828C144.016 71.1432 143.703 71.4167 143.391 71.7031V69.0078C146.125 66.7161 149.432 62.6927 153.312 56.9375C152.922 56.9115 152.557 56.8984 152.219 56.8984C151.88 56.8724 151.477 56.8594 151.008 56.8594C149.471 56.8594 148.326 56.9635 147.57 57.1719C147.258 57.25 146.958 57.3411 146.672 57.4453C146.411 57.5234 146.229 57.5625 146.125 57.5625C146.021 57.5625 145.969 57.4844 145.969 57.3281C145.969 56.4688 146.503 55.1797 147.57 53.4609C148.43 52.0026 149.237 50.9219 149.992 50.2188C150.773 49.5156 151.711 49.0469 152.805 48.8125C153.924 48.5521 155.487 48.4219 157.492 48.4219ZM188.898 68.6172V71.2344C187.18 72.7969 185.799 73.8385 184.758 74.3594C183.716 74.8802 182.219 75.0885 180.266 74.9844C176.88 78.9948 173.898 81 171.32 81C169.862 81 168.534 80.5182 167.336 79.5547C166.138 78.5911 165.174 77.276 164.445 75.6094C163.742 73.9427 163.391 72.0807 163.391 70.0234C163.391 68.3568 163.938 66.5078 165.031 64.4766C166.151 62.4453 167.583 60.5573 169.328 58.8125C171.099 57.0417 172.987 55.6224 174.992 54.5547C176.997 53.4609 178.859 52.9141 180.578 52.9141C181.802 52.9141 182.766 53.1094 183.469 53.5C184.172 53.8646 184.523 54.3854 184.523 55.0625C184.523 55.5833 184.224 56.1823 183.625 56.8594C184.615 57.0677 185.292 57.4193 185.656 57.9141C186.021 58.3828 186.203 59.2552 186.203 60.5312C186.203 61.7812 185.904 63.3568 185.305 65.2578C184.732 67.1589 183.938 68.9427 182.922 70.6094L183.625 71.3125H184.211C184.654 71.3125 185.083 71.2083 185.5 71C185.943 70.7656 186.333 70.5312 186.672 70.2969C187.01 70.0365 187.753 69.4766 188.898 68.6172ZM180.852 58.3438C178.69 59.6458 176.841 60.8307 175.305 61.8984C173.768 62.9401 172.466 64.0078 171.398 65.1016C170.331 66.1693 169.615 67.25 169.25 68.3438C168.599 71.2604 168.273 72.8359 168.273 73.0703C168.273 74.7891 169.471 75.6484 171.867 75.6484C172.987 75.6484 174.862 74.6849 177.492 72.7578C177.049 71.5339 176.828 70.362 176.828 69.2422C176.828 67.6016 177.167 65.9349 177.844 64.2422C178.521 62.5234 179.523 60.5573 180.852 58.3438ZM188.703 69.7891V68.8516C195.422 61.7682 200.044 56.8073 202.57 53.9688C203.143 50.7656 204.523 49.1641 206.711 49.1641C207.258 49.1641 207.844 49.3203 208.469 49.6328L208.703 50.375C208.599 50.6875 208.547 51.1302 208.547 51.7031C208.547 52.1979 208.729 53.1224 209.094 54.4766C209.484 55.8047 209.784 56.9245 209.992 57.8359C210.201 58.7474 210.305 59.776 210.305 60.9219C210.305 62.6406 209.914 64.2943 209.133 65.8828C208.352 67.4453 207.219 68.9557 205.734 70.4141C204.25 71.8464 202.336 73.3177 199.992 74.8281C200.93 74.9844 201.672 75.0625 202.219 75.0625C203.286 75.0625 204.432 74.8021 205.656 74.2812C206.906 73.7344 208.169 73.0182 209.445 72.1328C210.747 71.2214 212.258 70.0495 213.977 68.6172V71.2344C210.643 74.4896 207.661 76.9635 205.031 78.6562C202.401 80.3229 200.135 81.1562 198.234 81.1562C195.786 81.1562 193.521 80.1146 191.438 78.0312C190.214 76.7812 189.445 75.5833 189.133 74.4375C188.846 73.2917 188.703 71.7422 188.703 69.7891ZM203.273 63.8125L202.57 58.1094C200.956 59.9323 197.505 63.4349 192.219 68.6172C193.781 68.9557 194.849 69.4115 195.422 69.9844C195.995 70.5573 196.802 71.6641 197.844 73.3047C199.615 72.5755 200.969 71.5859 201.906 70.3359C202.87 69.0599 203.352 67.3281 203.352 65.1406C203.352 64.8802 203.339 64.6458 203.312 64.4375C203.312 64.2292 203.299 64.0208 203.273 63.8125ZM238.977 68.6172V71.2344C237.258 72.7969 235.878 73.8385 234.836 74.3594C233.794 74.8802 232.297 75.0885 230.344 74.9844C226.958 78.9948 223.977 81 221.398 81C219.94 81 218.612 80.5182 217.414 79.5547C216.216 78.5911 215.253 77.276 214.523 75.6094C213.82 73.9427 213.469 72.0807 213.469 70.0234C213.469 68.3568 214.016 66.5078 215.109 64.4766C216.229 62.4453 217.661 60.5573 219.406 58.8125C221.177 57.0417 223.065 55.6224 225.07 54.5547C227.076 53.4609 228.938 52.9141 230.656 52.9141C231.88 52.9141 232.844 53.1094 233.547 53.5C234.25 53.8646 234.602 54.3854 234.602 55.0625C234.602 55.5833 234.302 56.1823 233.703 56.8594C234.693 57.0677 235.37 57.4193 235.734 57.9141C236.099 58.3828 236.281 59.2552 236.281 60.5312C236.281 61.7812 235.982 63.3568 235.383 65.2578C234.81 67.1589 234.016 68.9427 233 70.6094L233.703 71.3125H234.289C234.732 71.3125 235.161 71.2083 235.578 71C236.021 70.7656 236.411 70.5312 236.75 70.2969C237.089 70.0365 237.831 69.4766 238.977 68.6172ZM230.93 58.3438C228.768 59.6458 226.919 60.8307 225.383 61.8984C223.846 62.9401 222.544 64.0078 221.477 65.1016C220.409 66.1693 219.693 67.25 219.328 68.3438C218.677 71.2604 218.352 72.8359 218.352 73.0703C218.352 74.7891 219.549 75.6484 221.945 75.6484C223.065 75.6484 224.94 74.6849 227.57 72.7578C227.128 71.5339 226.906 70.362 226.906 69.2422C226.906 67.6016 227.245 65.9349 227.922 64.2422C228.599 62.5234 229.602 60.5573 230.93 58.3438Z" fill="white"/>
<line x1="16.5" y1="111" x2="262.5" y2="111" stroke="white" stroke-width="4"/>
<path d="M48.9375 121.625H52.7031C53.5573 121.625 54.2786 121.755 54.8672 122.016C55.4609 122.276 55.9115 122.661 56.2188 123.172C56.5312 123.677 56.6875 124.299 56.6875 125.039C56.6875 125.56 56.5807 126.036 56.3672 126.469C56.1589 126.896 55.8568 127.26 55.4609 127.562C55.0703 127.859 54.6016 128.081 54.0547 128.227L53.6328 128.391H50.0938L50.0781 127.164H52.75C53.2917 127.164 53.7422 127.07 54.1016 126.883C54.4609 126.69 54.7318 126.432 54.9141 126.109C55.0964 125.786 55.1875 125.43 55.1875 125.039C55.1875 124.602 55.1016 124.219 54.9297 123.891C54.7578 123.562 54.487 123.31 54.1172 123.133C53.7526 122.951 53.2812 122.859 52.7031 122.859H50.4453V133H48.9375V121.625ZM55.5859 133L52.8203 127.844L54.3906 127.836L57.1953 132.906V133H55.5859ZM66.0234 131.773V133H60V131.773H66.0234ZM60.3047 121.625V133H58.7969V121.625H60.3047ZM65.2266 126.516V127.742H60V126.516H65.2266ZM65.9453 121.625V122.859H60V121.625H65.9453ZM72.25 121.625V133H70.7656V121.625H72.25ZM75.9062 121.625V122.859H67.1172V121.625H75.9062ZM81.1797 122.633L77.4141 133H75.875L80.2109 121.625H81.2031L81.1797 122.633ZM84.3359 133L80.5625 122.633L80.5391 121.625H81.5312L85.8828 133H84.3359ZM84.1406 128.789V130.023H77.75V128.789H84.1406ZM89.0234 121.625V133H87.5156V121.625H89.0234ZM98.6641 131.773V133H92.9766V131.773H98.6641ZM93.2734 121.625V133H91.7656V121.625H93.2734ZM108.57 122.633L104.805 133H103.266L107.602 121.625H108.594L108.57 122.633ZM111.727 133L107.953 122.633L107.93 121.625H108.922L113.273 133H111.727ZM111.531 128.789V130.023H105.141V128.789H111.531ZM123.547 121.625V133H122.031L116.305 124.227V133H114.797V121.625H116.305L122.055 130.422V121.625H123.547ZM129.297 133H126.922L126.938 131.773H129.297C130.109 131.773 130.786 131.604 131.328 131.266C131.87 130.922 132.276 130.443 132.547 129.828C132.823 129.208 132.961 128.484 132.961 127.656V126.961C132.961 126.31 132.883 125.732 132.727 125.227C132.57 124.716 132.341 124.286 132.039 123.938C131.737 123.583 131.367 123.315 130.93 123.133C130.497 122.951 130 122.859 129.438 122.859H126.875V121.625H129.438C130.182 121.625 130.862 121.75 131.477 122C132.091 122.245 132.62 122.602 133.062 123.07C133.51 123.534 133.854 124.096 134.094 124.758C134.333 125.414 134.453 126.154 134.453 126.977V127.656C134.453 128.479 134.333 129.221 134.094 129.883C133.854 130.539 133.508 131.099 133.055 131.562C132.607 132.026 132.065 132.383 131.43 132.633C130.799 132.878 130.089 133 129.297 133ZM127.727 121.625V133H126.219V121.625H127.727ZM143.68 129.562L145.938 121.625H147.031L146.398 124.711L143.969 133H142.883L143.68 129.562ZM141.344 121.625L143.141 129.406L143.68 133H142.602L139.844 121.625H141.344ZM149.953 129.398L151.711 121.625H153.219L150.469 133H149.391L149.953 129.398ZM147.195 121.625L149.391 129.562L150.188 133H149.102L146.758 124.711L146.117 121.625H147.195ZM162.32 126.516V127.742H156.164V126.516H162.32ZM156.398 121.625V133H154.891V121.625H156.398ZM163.633 121.625V133H162.133V121.625H163.633ZM175.07 126.953V127.672C175.07 128.526 174.964 129.292 174.75 129.969C174.536 130.646 174.229 131.221 173.828 131.695C173.427 132.169 172.945 132.531 172.383 132.781C171.826 133.031 171.201 133.156 170.508 133.156C169.836 133.156 169.219 133.031 168.656 132.781C168.099 132.531 167.615 132.169 167.203 131.695C166.797 131.221 166.482 130.646 166.258 129.969C166.034 129.292 165.922 128.526 165.922 127.672V126.953C165.922 126.099 166.031 125.336 166.25 124.664C166.474 123.987 166.789 123.411 167.195 122.938C167.602 122.458 168.083 122.094 168.641 121.844C169.203 121.594 169.82 121.469 170.492 121.469C171.185 121.469 171.81 121.594 172.367 121.844C172.93 122.094 173.411 122.458 173.812 122.938C174.219 123.411 174.529 123.987 174.742 124.664C174.961 125.336 175.07 126.099 175.07 126.953ZM173.578 127.672V126.938C173.578 126.26 173.508 125.661 173.367 125.141C173.232 124.62 173.031 124.182 172.766 123.828C172.5 123.474 172.174 123.206 171.789 123.023C171.409 122.841 170.977 122.75 170.492 122.75C170.023 122.75 169.599 122.841 169.219 123.023C168.844 123.206 168.521 123.474 168.25 123.828C167.984 124.182 167.779 124.62 167.633 125.141C167.487 125.661 167.414 126.26 167.414 126.938V127.672C167.414 128.354 167.487 128.958 167.633 129.484C167.779 130.005 167.987 130.445 168.258 130.805C168.534 131.159 168.859 131.427 169.234 131.609C169.615 131.792 170.039 131.883 170.508 131.883C170.997 131.883 171.432 131.792 171.812 131.609C172.193 131.427 172.513 131.159 172.773 130.805C173.039 130.445 173.24 130.005 173.375 129.484C173.51 128.958 173.578 128.354 173.578 127.672ZM184.227 131.773V133H178.539V131.773H184.227ZM178.836 121.625V133H177.328V121.625H178.836ZM193.18 131.773V133H187.156V131.773H193.18ZM187.461 121.625V133H185.953V121.625H187.461ZM192.383 126.516V127.742H187.156V126.516H192.383ZM193.102 121.625V122.859H187.156V121.625H193.102ZM201.109 130.125C201.109 129.859 201.068 129.625 200.984 129.422C200.906 129.214 200.766 129.026 200.562 128.859C200.365 128.693 200.089 128.534 199.734 128.383C199.385 128.232 198.943 128.078 198.406 127.922C197.844 127.755 197.336 127.57 196.883 127.367C196.43 127.159 196.042 126.922 195.719 126.656C195.396 126.391 195.148 126.086 194.977 125.742C194.805 125.398 194.719 125.005 194.719 124.562C194.719 124.12 194.81 123.711 194.992 123.336C195.174 122.961 195.435 122.635 195.773 122.359C196.117 122.078 196.526 121.859 197 121.703C197.474 121.547 198.003 121.469 198.586 121.469C199.44 121.469 200.164 121.633 200.758 121.961C201.357 122.284 201.812 122.708 202.125 123.234C202.438 123.755 202.594 124.312 202.594 124.906H201.094C201.094 124.479 201.003 124.102 200.82 123.773C200.638 123.44 200.362 123.18 199.992 122.992C199.622 122.799 199.154 122.703 198.586 122.703C198.049 122.703 197.607 122.784 197.258 122.945C196.909 123.107 196.648 123.326 196.477 123.602C196.31 123.878 196.227 124.193 196.227 124.547C196.227 124.786 196.276 125.005 196.375 125.203C196.479 125.396 196.638 125.576 196.852 125.742C197.07 125.909 197.346 126.062 197.68 126.203C198.018 126.344 198.422 126.479 198.891 126.609C199.536 126.792 200.094 126.995 200.562 127.219C201.031 127.443 201.417 127.695 201.719 127.977C202.026 128.253 202.253 128.568 202.398 128.922C202.549 129.271 202.625 129.667 202.625 130.109C202.625 130.573 202.531 130.992 202.344 131.367C202.156 131.742 201.888 132.062 201.539 132.328C201.19 132.594 200.771 132.799 200.281 132.945C199.797 133.086 199.255 133.156 198.656 133.156C198.13 133.156 197.612 133.083 197.102 132.938C196.596 132.792 196.135 132.573 195.719 132.281C195.307 131.99 194.977 131.63 194.727 131.203C194.482 130.771 194.359 130.271 194.359 129.703H195.859C195.859 130.094 195.935 130.43 196.086 130.711C196.237 130.987 196.443 131.216 196.703 131.398C196.969 131.581 197.268 131.716 197.602 131.805C197.94 131.888 198.292 131.93 198.656 131.93C199.182 131.93 199.628 131.857 199.992 131.711C200.357 131.565 200.633 131.357 200.82 131.086C201.013 130.815 201.109 130.495 201.109 130.125ZM208.758 122.633L204.992 133H203.453L207.789 121.625H208.781L208.758 122.633ZM211.914 133L208.141 122.633L208.117 121.625H209.109L213.461 133H211.914ZM211.719 128.789V130.023H205.328V128.789H211.719ZM221.883 131.773V133H216.195V131.773H221.883ZM216.492 121.625V133H214.984V121.625H216.492ZM230.836 131.773V133H224.812V131.773H230.836ZM225.117 121.625V133H223.609V121.625H225.117ZM230.039 126.516V127.742H224.812V126.516H230.039ZM230.758 121.625V122.859H224.812V121.625H230.758ZM104.414 149.125C104.414 148.859 104.372 148.625 104.289 148.422C104.211 148.214 104.07 148.026 103.867 147.859C103.669 147.693 103.393 147.534 103.039 147.383C102.69 147.232 102.247 147.078 101.711 146.922C101.148 146.755 100.641 146.57 100.188 146.367C99.7344 146.159 99.3464 145.922 99.0234 145.656C98.7005 145.391 98.4531 145.086 98.2812 144.742C98.1094 144.398 98.0234 144.005 98.0234 143.562C98.0234 143.12 98.1146 142.711 98.2969 142.336C98.4792 141.961 98.7396 141.635 99.0781 141.359C99.4219 141.078 99.8307 140.859 100.305 140.703C100.779 140.547 101.307 140.469 101.891 140.469C102.745 140.469 103.469 140.633 104.062 140.961C104.661 141.284 105.117 141.708 105.43 142.234C105.742 142.755 105.898 143.312 105.898 143.906H104.398C104.398 143.479 104.307 143.102 104.125 142.773C103.943 142.44 103.667 142.18 103.297 141.992C102.927 141.799 102.458 141.703 101.891 141.703C101.354 141.703 100.911 141.784 100.562 141.945C100.214 142.107 99.9531 142.326 99.7812 142.602C99.6146 142.878 99.5312 143.193 99.5312 143.547C99.5312 143.786 99.5807 144.005 99.6797 144.203C99.7839 144.396 99.9427 144.576 100.156 144.742C100.375 144.909 100.651 145.062 100.984 145.203C101.323 145.344 101.727 145.479 102.195 145.609C102.841 145.792 103.398 145.995 103.867 146.219C104.336 146.443 104.721 146.695 105.023 146.977C105.331 147.253 105.557 147.568 105.703 147.922C105.854 148.271 105.93 148.667 105.93 149.109C105.93 149.573 105.836 149.992 105.648 150.367C105.461 150.742 105.193 151.062 104.844 151.328C104.495 151.594 104.076 151.799 103.586 151.945C103.102 152.086 102.56 152.156 101.961 152.156C101.435 152.156 100.917 152.083 100.406 151.938C99.901 151.792 99.4401 151.573 99.0234 151.281C98.612 150.99 98.2812 150.63 98.0312 150.203C97.7865 149.771 97.6641 149.271 97.6641 148.703H99.1641C99.1641 149.094 99.2396 149.43 99.3906 149.711C99.5417 149.987 99.7474 150.216 100.008 150.398C100.273 150.581 100.573 150.716 100.906 150.805C101.245 150.888 101.596 150.93 101.961 150.93C102.487 150.93 102.932 150.857 103.297 150.711C103.661 150.565 103.938 150.357 104.125 150.086C104.318 149.815 104.414 149.495 104.414 149.125ZM116.609 145.953V146.672C116.609 147.526 116.503 148.292 116.289 148.969C116.076 149.646 115.768 150.221 115.367 150.695C114.966 151.169 114.484 151.531 113.922 151.781C113.365 152.031 112.74 152.156 112.047 152.156C111.375 152.156 110.758 152.031 110.195 151.781C109.638 151.531 109.154 151.169 108.742 150.695C108.336 150.221 108.021 149.646 107.797 148.969C107.573 148.292 107.461 147.526 107.461 146.672V145.953C107.461 145.099 107.57 144.336 107.789 143.664C108.013 142.987 108.328 142.411 108.734 141.938C109.141 141.458 109.622 141.094 110.18 140.844C110.742 140.594 111.359 140.469 112.031 140.469C112.724 140.469 113.349 140.594 113.906 140.844C114.469 141.094 114.951 141.458 115.352 141.938C115.758 142.411 116.068 142.987 116.281 143.664C116.5 144.336 116.609 145.099 116.609 145.953ZM115.117 146.672V145.938C115.117 145.26 115.047 144.661 114.906 144.141C114.771 143.62 114.57 143.182 114.305 142.828C114.039 142.474 113.714 142.206 113.328 142.023C112.948 141.841 112.516 141.75 112.031 141.75C111.562 141.75 111.138 141.841 110.758 142.023C110.383 142.206 110.06 142.474 109.789 142.828C109.523 143.182 109.318 143.62 109.172 144.141C109.026 144.661 108.953 145.26 108.953 145.938V146.672C108.953 147.354 109.026 147.958 109.172 148.484C109.318 149.005 109.526 149.445 109.797 149.805C110.073 150.159 110.398 150.427 110.773 150.609C111.154 150.792 111.578 150.883 112.047 150.883C112.536 150.883 112.971 150.792 113.352 150.609C113.732 150.427 114.052 150.159 114.312 149.805C114.578 149.445 114.779 149.005 114.914 148.484C115.049 147.958 115.117 147.354 115.117 146.672ZM125.766 150.773V152H120.078V150.773H125.766ZM120.375 140.625V152H118.867V140.625H120.375ZM133.578 140.625H135.078V148.32C135.078 149.174 134.888 149.885 134.508 150.453C134.128 151.021 133.622 151.448 132.992 151.734C132.367 152.016 131.688 152.156 130.953 152.156C130.182 152.156 129.484 152.016 128.859 151.734C128.24 151.448 127.747 151.021 127.383 150.453C127.023 149.885 126.844 149.174 126.844 148.32V140.625H128.336V148.32C128.336 148.914 128.445 149.404 128.664 149.789C128.883 150.174 129.188 150.461 129.578 150.648C129.974 150.836 130.432 150.93 130.953 150.93C131.479 150.93 131.938 150.836 132.328 150.648C132.724 150.461 133.031 150.174 133.25 149.789C133.469 149.404 133.578 148.914 133.578 148.32V140.625ZM141.648 140.625V152H140.164V140.625H141.648ZM145.305 140.625V141.859H136.516V140.625H145.305ZM148.609 140.625V152H147.102V140.625H148.609ZM160.109 145.953V146.672C160.109 147.526 160.003 148.292 159.789 148.969C159.576 149.646 159.268 150.221 158.867 150.695C158.466 151.169 157.984 151.531 157.422 151.781C156.865 152.031 156.24 152.156 155.547 152.156C154.875 152.156 154.258 152.031 153.695 151.781C153.138 151.531 152.654 151.169 152.242 150.695C151.836 150.221 151.521 149.646 151.297 148.969C151.073 148.292 150.961 147.526 150.961 146.672V145.953C150.961 145.099 151.07 144.336 151.289 143.664C151.513 142.987 151.828 142.411 152.234 141.938C152.641 141.458 153.122 141.094 153.68 140.844C154.242 140.594 154.859 140.469 155.531 140.469C156.224 140.469 156.849 140.594 157.406 140.844C157.969 141.094 158.451 141.458 158.852 141.938C159.258 142.411 159.568 142.987 159.781 143.664C160 144.336 160.109 145.099 160.109 145.953ZM158.617 146.672V145.938C158.617 145.26 158.547 144.661 158.406 144.141C158.271 143.62 158.07 143.182 157.805 142.828C157.539 142.474 157.214 142.206 156.828 142.023C156.448 141.841 156.016 141.75 155.531 141.75C155.062 141.75 154.638 141.841 154.258 142.023C153.883 142.206 153.56 142.474 153.289 142.828C153.023 143.182 152.818 143.62 152.672 144.141C152.526 144.661 152.453 145.26 152.453 145.938V146.672C152.453 147.354 152.526 147.958 152.672 148.484C152.818 149.005 153.026 149.445 153.297 149.805C153.573 150.159 153.898 150.427 154.273 150.609C154.654 150.792 155.078 150.883 155.547 150.883C156.036 150.883 156.471 150.792 156.852 150.609C157.232 150.427 157.552 150.159 157.812 149.805C158.078 149.445 158.279 149.005 158.414 148.484C158.549 147.958 158.617 147.354 158.617 146.672ZM171.117 140.625V152H169.602L163.875 143.227V152H162.367V140.625H163.875L169.625 149.422V140.625H171.117ZM179.852 149.125C179.852 148.859 179.81 148.625 179.727 148.422C179.648 148.214 179.508 148.026 179.305 147.859C179.107 147.693 178.831 147.534 178.477 147.383C178.128 147.232 177.685 147.078 177.148 146.922C176.586 146.755 176.078 146.57 175.625 146.367C175.172 146.159 174.784 145.922 174.461 145.656C174.138 145.391 173.891 145.086 173.719 144.742C173.547 144.398 173.461 144.005 173.461 143.562C173.461 143.12 173.552 142.711 173.734 142.336C173.917 141.961 174.177 141.635 174.516 141.359C174.859 141.078 175.268 140.859 175.742 140.703C176.216 140.547 176.745 140.469 177.328 140.469C178.182 140.469 178.906 140.633 179.5 140.961C180.099 141.284 180.555 141.708 180.867 142.234C181.18 142.755 181.336 143.312 181.336 143.906H179.836C179.836 143.479 179.745 143.102 179.562 142.773C179.38 142.44 179.104 142.18 178.734 141.992C178.365 141.799 177.896 141.703 177.328 141.703C176.792 141.703 176.349 141.784 176 141.945C175.651 142.107 175.391 142.326 175.219 142.602C175.052 142.878 174.969 143.193 174.969 143.547C174.969 143.786 175.018 144.005 175.117 144.203C175.221 144.396 175.38 144.576 175.594 144.742C175.812 144.909 176.089 145.062 176.422 145.203C176.76 145.344 177.164 145.479 177.633 145.609C178.279 145.792 178.836 145.995 179.305 146.219C179.773 146.443 180.159 146.695 180.461 146.977C180.768 147.253 180.995 147.568 181.141 147.922C181.292 148.271 181.367 148.667 181.367 149.109C181.367 149.573 181.273 149.992 181.086 150.367C180.898 150.742 180.63 151.062 180.281 151.328C179.932 151.594 179.513 151.799 179.023 151.945C178.539 152.086 177.997 152.156 177.398 152.156C176.872 152.156 176.354 152.083 175.844 151.938C175.339 151.792 174.878 151.573 174.461 151.281C174.049 150.99 173.719 150.63 173.469 150.203C173.224 149.771 173.102 149.271 173.102 148.703H174.602C174.602 149.094 174.677 149.43 174.828 149.711C174.979 149.987 175.185 150.216 175.445 150.398C175.711 150.581 176.01 150.716 176.344 150.805C176.682 150.888 177.034 150.93 177.398 150.93C177.924 150.93 178.37 150.857 178.734 150.711C179.099 150.565 179.375 150.357 179.562 150.086C179.755 149.815 179.852 149.495 179.852 149.125Z" fill="white"/>
</g>
<defs>
<filter id="filter0_d_37_29" x="247" y="128" width="1689" height="986" filterUnits="userSpaceOnUse" color-interpolation-filters="sRGB">
<feFlood flood-opacity="0" result="BackgroundImageFix"/>
<feColorMatrix in="SourceAlpha" type="matrix" values="0 0 0 0 0 0 0 0 0 0 0 0 0 0 0 0 0 0 127 0" result="hardAlpha"/>
<feOffset dx="-6" dy="12"/>
<feGaussianBlur stdDeviation="11"/>
<feComposite in2="hardAlpha" operator="out"/>
<feColorMatrix type="matrix" values="0 0 0 0 0 0 0 0 0 0 0 0 0 0 0 0 0 0 0.25 0"/>
<feBlend mode="normal" in2="BackgroundImageFix" result="effect1_dropShadow_37_29"/>
<feBlend mode="normal" in="SourceGraphic" in2="effect1_dropShadow_37_29" result="shape"/>
</filter>
<filter id="filter1_d_37_29" x="1095" y="603" width="774" height="458" filterUnits="userSpaceOnUse" color-interpolation-filters="sRGB">
<feFlood flood-opacity="0" result="BackgroundImageFix"/>
<feColorMatrix in="SourceAlpha" type="matrix" values="0 0 0 0 0 0 0 0 0 0 0 0 0 0 0 0 0 0 127 0" result="hardAlpha"/>
<feOffset dx="-6" dy="12"/>
<feGaussianBlur stdDeviation="11"/>
<feComposite in2="hardAlpha" operator="out"/>
<feColorMatrix type="matrix" values="0 0 0 0 0 0 0 0 0 0 0 0 0 0 0 0 0 0 0.25 0"/>
<feBlend mode="normal" in2="BackgroundImageFix" result="effect1_dropShadow_37_29"/>
<feBlend mode="normal" in="SourceGraphic" in2="effect1_dropShadow_37_29" result="shape"/>
</filter>
<filter id="filter2_d_37_29" x="315" y="604" width="774" height="457" filterUnits="userSpaceOnUse" color-interpolation-filters="sRGB">
<feFlood flood-opacity="0" result="BackgroundImageFix"/>
<feColorMatrix in="SourceAlpha" type="matrix" values="0 0 0 0 0 0 0 0 0 0 0 0 0 0 0 0 0 0 127 0" result="hardAlpha"/>
<feOffset dx="-6" dy="12"/>
<feGaussianBlur stdDeviation="11"/>
<feComposite in2="hardAlpha" operator="out"/>
<feColorMatrix type="matrix" values="0 0 0 0 0 0 0 0 0 0 0 0 0 0 0 0 0 0 0.25 0"/>
<feBlend mode="normal" in2="BackgroundImageFix" result="effect1_dropShadow_37_29"/>
<feBlend mode="normal" in="SourceGraphic" in2="effect1_dropShadow_37_29" result="shape"/>
</filter>
<filter id="filter3_d_37_29" x="965" y="178" width="904" height="419" filterUnits="userSpaceOnUse" color-interpolation-filters="sRGB">
<feFlood flood-opacity="0" result="BackgroundImageFix"/>
<feColorMatrix in="SourceAlpha" type="matrix" values="0 0 0 0 0 0 0 0 0 0 0 0 0 0 0 0 0 0 127 0" result="hardAlpha"/>
<feOffset dx="-6" dy="12"/>
<feGaussianBlur stdDeviation="11"/>
<feComposite in2="hardAlpha" operator="out"/>
<feColorMatrix type="matrix" values="0 0 0 0 0 0 0 0 0 0 0 0 0 0 0 0 0 0 0.25 0"/>
<feBlend mode="normal" in2="BackgroundImageFix" result="effect1_dropShadow_37_29"/>
<feBlend mode="normal" in="SourceGraphic" in2="effect1_dropShadow_37_29" result="shape"/>
</filter>
<filter id="filter4_d_37_29" x="315" y="178" width="644" height="419" filterUnits="userSpaceOnUse" color-interpolation-filters="sRGB">
<feFlood flood-opacity="0" result="BackgroundImageFix"/>
<feColorMatrix in="SourceAlpha" type="matrix" values="0 0 0 0 0 0 0 0 0 0 0 0 0 0 0 0 0 0 127 0" result="hardAlpha"/>
<feOffset dx="-6" dy="12"/>
<feGaussianBlur stdDeviation="11"/>
<feComposite in2="hardAlpha" operator="out"/>
<feColorMatrix type="matrix" values="0 0 0 0 0 0 0 0 0 0 0 0 0 0 0 0 0 0 0.25 0"/>
<feBlend mode="normal" in2="BackgroundImageFix" result="effect1_dropShadow_37_29"/>
<feBlend mode="normal" in="SourceGraphic" in2="effect1_dropShadow_37_29" result="shape"/>
</filter>
<filter id="filter5_d_37_29" x="16" y="574" width="232" height="359" filterUnits="userSpaceOnUse" color-interpolation-filters="sRGB">
<feFlood flood-opacity="0" result="BackgroundImageFix"/>
<feColorMatrix in="SourceAlpha" type="matrix" values="0 0 0 0 0 0 0 0 0 0 0 0 0 0 0 0 0 0 127 0" result="hardAlpha"/>
<feOffset dx="-6" dy="12"/>
<feGaussianBlur stdDeviation="11"/>
<feComposite in2="hardAlpha" operator="out"/>
<feColorMatrix type="matrix" values="0 0 0 0 0 0 0 0 0 0 0 0 0 0 0 0 0 0 0.25 0"/>
<feBlend mode="normal" in2="BackgroundImageFix" result="effect1_dropShadow_37_29"/>
<feBlend mode="normal" in="SourceGraphic" in2="effect1_dropShadow_37_29" result="shape"/>
</filter>
<filter id="filter6_d_37_29" x="16" y="912" width="235" height="158" filterUnits="userSpaceOnUse" color-interpolation-filters="sRGB">
<feFlood flood-opacity="0" result="BackgroundImageFix"/>
<feColorMatrix in="SourceAlpha" type="matrix" values="0 0 0 0 0 0 0 0 0 0 0 0 0 0 0 0 0 0 127 0" result="hardAlpha"/>
<feOffset dx="-6" dy="12"/>
<feGaussianBlur stdDeviation="11"/>
<feComposite in2="hardAlpha" operator="out"/>
<feColorMatrix type="matrix" values="0 0 0 0 0 0 0 0 0 0 0 0 0 0 0 0 0 0 0.25 0"/>
<feBlend mode="normal" in2="BackgroundImageFix" result="effect1_dropShadow_37_29"/>
<feBlend mode="normal" in="SourceGraphic" in2="effect1_dropShadow_37_29" result="shape"/>
</filter>
<filter id="filter7_d_37_29" x="1036" y="33" width="862" height="116" filterUnits="userSpaceOnUse" color-interpolation-filters="sRGB">
<feFlood flood-opacity="0" result="BackgroundImageFix"/>
<feColorMatrix in="SourceAlpha" type="matrix" values="0 0 0 0 0 0 0 0 0 0 0 0 0 0 0 0 0 0 127 0" result="hardAlpha"/>
<feOffset dx="-6" dy="12"/>
<feGaussianBlur stdDeviation="11"/>
<feComposite in2="hardAlpha" operator="out"/>
<feColorMatrix type="matrix" values="0 0 0 0 0 0 0 0 0 0 0 0 0 0 0 0 0 0 0.25 0"/>
<feBlend mode="normal" in2="BackgroundImageFix" result="effect1_dropShadow_37_29"/>
<feBlend mode="normal" in="SourceGraphic" in2="effect1_dropShadow_37_29" result="shape"/>
</filter>
<clipPath id="clip0_37_29">
<rect width="1920" height="1080" fill="white"/>
</clipPath>
</defs>
</svg>
